<svg width="43" height="50" viewBox="0 0 43 50" fill="none" xmlns="http://www.w3.org/2000/svg">
<path d="M42.451 36.7647L21.2255 49.0196L7.62939e-06 36.7647V12.2549L21.2255 0L42.451 12.2549V36.7647Z" fill="#07030C"/>
<path d="M30.058 15.6868L26.4089 12.0378H12.2081V35.4126C12.2081 36.1392 13.1216 36.6877 14.3329 36.6877C15.5444 36.6877 16.458 36.1392 16.458 35.4126V16.8889L19.008 19.439V35.4128C19.008 36.1395 19.9215 36.6879 21.1331 36.6879C22.3444 36.6879 23.2579 36.1395 23.2579 35.4128V15.4378H15.608V34.3807C15.2573 34.2276 14.8202 34.1379 14.3329 34.1379C13.8461 34.1379 13.4088 34.2276 13.058 34.3807V12.8878H25.8082V35.4126C25.8082 36.1392 26.7214 36.6877 27.933 36.6877C29.1443 36.6877 30.058 36.1392 30.058 35.4126V15.6868ZM22.408 34.3807C22.0572 34.2276 21.6199 34.1379 21.1331 34.1379C20.6457 34.1379 20.2087 34.2276 19.8579 34.3807V19.6877H22.408V34.3807ZM21.1331 35.8378C20.3102 35.8378 19.8579 35.5183 19.8579 35.4126C19.8579 35.3068 20.3102 34.9876 21.1331 34.9876C21.9559 34.9876 22.408 35.3068 22.408 35.4126C22.408 35.5183 21.9559 35.8378 21.1331 35.8378ZM22.408 18.8378H19.609L17.0592 16.2877H22.408V18.8378ZM14.3329 34.9878C15.1557 34.9878 15.608 35.3071 15.608 35.4128C15.608 35.5186 15.1557 35.838 14.3329 35.838C13.5101 35.838 13.058 35.5186 13.058 35.4128C13.058 35.3071 13.5101 34.9878 14.3329 34.9878ZM29.2081 16.0388V34.3805C28.8573 34.2274 28.4201 34.1377 27.933 34.1377C27.4459 34.1377 27.0086 34.2274 26.6581 34.3805V13.4887L29.2081 16.0388ZM27.933 35.8378C27.1102 35.8378 26.6581 35.5183 26.6581 35.4126C26.6581 35.3068 27.1102 34.9876 27.933 34.9876C28.7555 34.9876 29.2081 35.3068 29.2081 35.4126C29.2081 35.5183 28.7555 35.8378 27.933 35.8378Z" fill="#F7F3FC"/>
</svg>
