<svg width="2329" height="200" viewBox="0 0 2329 200" fill="none" xmlns="http://www.w3.org/2000/svg">
<path d="M290.594 153.972C290.594 155.361 291.706 156.611 293.233 156.611H344.067C345.594 156.611 346.706 155.361 346.706 153.972V142.583C346.706 141.194 345.594 139.944 344.067 139.944H308.65V62.0278C308.65 60.6389 307.4 59.3889 306.011 59.3889H293.233C291.706 59.3889 290.594 60.6389 290.594 62.0278V153.972Z" fill="#F7F3FC"/>
<path d="M431.275 119.806C431.275 140.917 448.081 158 469.887 158C491.831 158 508.637 140.917 508.637 119.806V62.0278C508.637 60.6389 507.387 59.3889 505.998 59.3889H492.803C491.275 59.3889 490.164 60.6389 490.164 62.0278V118.972C490.164 130.639 481.97 139.944 469.887 139.944C457.803 139.944 449.748 130.639 449.748 118.833V62.0278C449.748 60.6389 448.637 59.3889 447.109 59.3889H433.914C432.525 59.3889 431.275 60.6389 431.275 62.0278V119.806Z" fill="#F7F3FC"/>
<path d="M598.762 108.139C598.762 135.917 621.123 158 648.901 158C661.262 158 673.206 153.694 682.651 144.528C683.623 143.556 683.901 141.75 682.79 140.778L674.179 131.889C673.345 131.056 671.818 130.917 670.706 131.889C664.873 136.611 657.79 139.806 649.456 139.806C631.679 139.806 618.345 125.083 618.345 107.722C618.345 90.2222 631.54 75.3611 649.318 75.3611C657.095 75.3611 664.873 78.4167 670.706 83.5555C671.818 84.6667 673.206 84.6667 674.179 83.5555L682.651 74.8056C683.762 73.6944 683.762 72.0278 682.512 70.9167C673.067 62.4444 662.929 58 648.901 58C621.123 58 598.762 80.3611 598.762 108.139Z" fill="#F7F3FC"/>
<path d="M763.885 156.611H775.969C778.191 156.611 779.441 155.222 779.996 153.833L786.802 138.833H828.33L835.135 153.833C836.108 155.778 837.08 156.611 839.163 156.611H851.246C853.33 156.611 854.441 154.806 853.608 153L810.83 59.5278C810.413 58.6944 809.858 58 808.469 58H807.08C805.83 58 805.135 58.6944 804.719 59.5278L761.524 153C760.691 154.806 761.802 156.611 763.885 156.611ZM793.608 123.417L807.219 92.8611H807.635L821.524 123.417H793.608Z" fill="#F7F3FC"/>
<path d="M1037.19 153.417C1036.91 155.361 1038.02 156.611 1039.83 156.611H1052.33C1053.58 156.611 1054.69 155.5 1054.83 154.528L1062.89 101.889C1063.02 101.889 1063.3 101.889 1063.3 101.889L1087.89 156.472C1088.3 157.306 1089 158 1090.25 158H1092.75C1094 158 1094.83 157.306 1095.11 156.472L1119.41 101.889C1119.41 101.889 1119.69 101.889 1119.83 101.889L1128.02 154.528C1128.3 155.5 1129.41 156.611 1130.66 156.611H1143.3C1145.11 156.611 1146.22 155.361 1145.8 153.417L1129.41 60.0833C1129.27 58.9722 1128.44 58 1126.91 58H1124.69C1123.44 58 1122.75 58.5556 1122.33 59.3889L1091.77 124.944C1091.64 124.944 1091.64 124.944 1091.36 124.944L1060.8 59.3889C1060.39 58.5556 1059.55 58 1058.44 58H1056.22C1054.69 58 1053.86 58.9722 1053.72 60.0833L1037.19 153.417Z" fill="#F7F3FC"/>
<path d="M1227.87 156.611H1239.96C1242.18 156.611 1243.43 155.222 1243.98 153.833L1250.79 138.833H1292.32L1299.12 153.833C1300.09 155.778 1301.07 156.611 1303.15 156.611H1315.23C1317.32 156.611 1318.43 154.806 1317.59 153L1274.82 59.5278C1274.4 58.6944 1273.84 58 1272.46 58H1271.07C1269.82 58 1269.12 58.6944 1268.71 59.5278L1225.51 153C1224.68 154.806 1225.79 156.611 1227.87 156.611ZM1257.59 123.417L1271.21 92.8611H1271.62L1285.51 123.417H1257.59Z" fill="#F7F3FC"/>
<path d="M1395.78 108.139C1395.78 135.917 1418.14 158 1445.91 158C1458.28 158 1470.22 153.694 1479.66 144.528C1480.64 143.556 1480.91 141.75 1479.8 140.778L1471.19 131.889C1470.36 131.056 1468.83 130.917 1467.72 131.889C1461.89 136.611 1454.8 139.806 1446.47 139.806C1428.69 139.806 1415.36 125.083 1415.36 107.722C1415.36 90.2222 1428.55 75.3611 1446.33 75.3611C1454.11 75.3611 1461.89 78.4167 1467.72 83.5555C1468.83 84.6667 1470.22 84.6667 1471.19 83.5555L1479.66 74.8056C1480.78 73.6944 1480.78 72.0278 1479.53 70.9167C1470.08 62.4444 1459.94 58 1445.91 58C1418.14 58 1395.78 80.3611 1395.78 108.139Z" fill="#F7F3FC"/>
<path d="M1571.18 153.972C1571.18 155.361 1572.29 156.611 1573.82 156.611H1630.34C1631.87 156.611 1632.98 155.361 1632.98 153.972V142.583C1632.98 141.194 1631.87 139.944 1630.34 139.944H1589.23V115.639H1623.54C1624.93 115.639 1626.18 114.528 1626.18 113V101.472C1626.18 100.083 1624.93 98.8334 1623.54 98.8334H1589.23V76.0556H1630.34C1631.87 76.0556 1632.98 74.8056 1632.98 73.4167V62.0278C1632.98 60.6389 1631.87 59.3889 1630.34 59.3889H1573.82C1572.29 59.3889 1571.18 60.6389 1571.18 62.0278V153.972Z" fill="#F7F3FC"/>
<path d="M1726.16 153.972C1726.16 155.361 1727.27 156.611 1728.66 156.611H1761.58C1788.39 156.611 1810.33 134.806 1810.33 107.861C1810.33 81.1945 1788.39 59.3889 1761.58 59.3889H1728.66C1727.27 59.3889 1726.16 60.6389 1726.16 62.0278V153.972ZM1744.08 139.667V76.1945H1759.91C1777.97 76.1945 1791.16 89.8056 1791.16 107.861C1791.16 126.056 1777.97 139.667 1759.91 139.667H1744.08Z" fill="#F7F3FC"/>
<path d="M1895.04 108.139C1895.04 135.917 1917.12 158 1944.9 158C1972.68 158 1994.9 135.917 1994.9 108.139C1994.9 80.3611 1972.68 58 1944.9 58C1917.12 58 1895.04 80.3611 1895.04 108.139ZM1913.09 108.139C1913.09 90.6389 1927.4 76.0556 1944.9 76.0556C1962.4 76.0556 1976.84 90.6389 1976.84 108.139C1976.84 125.639 1962.4 139.944 1944.9 139.944C1927.4 139.944 1913.09 125.639 1913.09 108.139Z" fill="#F7F3FC"/>
<path d="M2086.41 153.972C2086.41 155.361 2087.66 156.611 2089.05 156.611H2101.69C2103.22 156.611 2104.33 155.361 2104.33 153.972V94.25H2104.47L2162.53 158H2165.86C2167.25 158 2168.5 156.889 2168.5 155.5V62.0278C2168.5 60.6389 2167.25 59.3889 2165.86 59.3889H2153.08C2151.55 59.3889 2150.44 60.6389 2150.44 62.0278V119.389H2150.3L2092.53 58H2089.05C2087.66 58 2086.41 59.1111 2086.41 60.5V153.972Z" fill="#F7F3FC"/>
<path d="M2267.1 153.972C2267.1 155.361 2268.21 156.611 2269.73 156.611H2326.26C2327.79 156.611 2328.9 155.361 2328.9 153.972V142.583C2328.9 141.194 2327.79 139.944 2326.26 139.944H2285.15V115.639H2319.46C2320.85 115.639 2322.1 114.528 2322.1 113V101.472C2322.1 100.083 2320.85 98.8334 2319.46 98.8334H2285.15V76.0556H2326.26C2327.79 76.0556 2328.9 74.8056 2328.9 73.4167V62.0278C2328.9 60.6389 2327.79 59.3889 2326.26 59.3889H2269.73C2268.21 59.3889 2267.1 60.6389 2267.1 62.0278V153.972Z" fill="#F7F3FC"/>
<path d="M144.828 29.606L115.22 0H0V189.654C0 195.55 7.412 200 17.24 200C27.07 200 34.482 195.55 34.482 189.654V39.36L55.172 60.05V189.656C55.172 195.552 62.584 200.002 72.414 200.002C82.242 200.002 89.654 195.552 89.654 189.656V27.586H27.586V181.282C24.74 180.04 21.194 179.312 17.24 179.312C13.29 179.312 9.742 180.04 6.896 181.282V6.896H110.346V189.654C110.346 195.55 117.756 200 127.586 200C137.414 200 144.828 195.55 144.828 189.654V29.606ZM82.758 181.282C79.912 180.04 76.364 179.312 72.414 179.312C68.46 179.312 64.914 180.04 62.068 181.282V62.068H82.758V181.282ZM72.414 193.104C65.738 193.104 62.068 190.512 62.068 189.654C62.068 188.796 65.738 186.206 72.414 186.206C79.09 186.206 82.758 188.796 82.758 189.654C82.758 190.512 79.09 193.104 72.414 193.104ZM82.758 55.172H60.048L39.36 34.482H82.758V55.172ZM17.24 186.208C23.916 186.208 27.586 188.798 27.586 189.656C27.586 190.514 23.916 193.106 17.24 193.106C10.564 193.106 6.896 190.514 6.896 189.656C6.896 188.798 10.564 186.208 17.24 186.208ZM137.932 32.462V181.28C135.086 180.038 131.538 179.31 127.586 179.31C123.634 179.31 120.086 180.038 117.242 181.28V11.772L137.932 32.462ZM127.586 193.104C120.91 193.104 117.242 190.512 117.242 189.654C117.242 188.796 120.91 186.206 127.586 186.206C134.26 186.206 137.932 188.796 137.932 189.654C137.932 190.512 134.26 193.104 127.586 193.104Z" fill="#F7F3FC"/>
</svg>
