<svg width="182" height="250" viewBox="0 0 182 250" fill="none" xmlns="http://www.w3.org/2000/svg">
<path d="M181.67 37.0075L144.66 0H0.635254V237.068C0.635254 244.438 9.90025 250 22.1853 250C34.4728 250 43.7378 244.438 43.7378 237.068V49.2L69.6003 75.0625V237.07C69.6003 244.44 78.8653 250.002 91.1528 250.002C103.438 250.002 112.703 244.44 112.703 237.07V34.4825H35.1178V226.602C31.5603 225.05 27.1278 224.14 22.1853 224.14C17.2478 224.14 12.8128 225.05 9.25525 226.602V8.62H138.568V237.068C138.568 244.438 147.83 250 160.118 250C172.403 250 181.67 244.438 181.67 237.068V37.0075ZM104.083 226.602C100.525 225.05 96.0903 224.14 91.1528 224.14C86.2103 224.14 81.7778 225.05 78.2203 226.602V77.585H104.083V226.602ZM91.1528 241.38C82.8078 241.38 78.2203 238.14 78.2203 237.068C78.2203 235.995 82.8078 232.757 91.1528 232.757C99.4978 232.757 104.083 235.995 104.083 237.068C104.083 238.14 99.4978 241.38 91.1528 241.38ZM104.083 68.965H75.6953L49.8353 43.1025H104.083V68.965ZM22.1853 232.76C30.5303 232.76 35.1178 235.998 35.1178 237.07C35.1178 238.143 30.5303 241.383 22.1853 241.383C13.8403 241.383 9.25525 238.143 9.25525 237.07C9.25525 235.998 13.8403 232.76 22.1853 232.76ZM173.05 40.5775V226.6C169.493 225.047 165.058 224.137 160.118 224.137C155.178 224.137 150.743 225.047 147.188 226.6V14.715L173.05 40.5775ZM160.118 241.38C151.773 241.38 147.188 238.14 147.188 237.068C147.188 235.995 151.773 232.757 160.118 232.757C168.46 232.757 173.05 235.995 173.05 237.068C173.05 238.14 168.46 241.38 160.118 241.38Z" fill="#F7F3FC"/>
</svg>
